<svg width="18" height="19" viewBox="0 0 18 19" fill="none" xmlns="http://www.w3.org/2000/svg">
<path d="M16.0709 18.158L13.0854 15.7062C12.4502 16.2143 11.7197 16.6166 10.8939 16.9131C10.0681 17.2095 9.18942 17.3577 8.25777 17.3577C5.94983 17.3577 3.99655 16.5584 2.39793 14.9598C0.79931 13.3612 0 11.4079 0 9.09994C0 6.79199 0.79931 4.83871 2.39793 3.24009C3.99655 1.64147 5.94983 0.842163 8.25777 0.842163C10.5657 0.842163 12.519 1.64147 14.1176 3.24009C15.7162 4.83871 16.5155 6.79199 16.5155 9.09994C16.5155 10.0316 16.3673 10.9103 16.0709 11.7361C15.7745 12.5618 15.3722 13.2923 14.864 13.9276L17.5794 16.3994L16.0709 18.158ZM8.25777 14.8169C9.84581 14.8169 11.1956 14.261 12.3073 13.1494C13.4189 12.0378 13.9747 10.688 13.9747 9.09994C13.9747 7.5119 13.4189 6.16207 12.3073 5.05045C11.1956 3.93883 9.84581 3.38302 8.25777 3.38302C6.66974 3.38302 5.31991 3.93883 4.20829 5.05045C3.09667 6.16207 2.54085 7.5119 2.54085 9.09994C2.54085 10.688 3.09667 12.0378 4.20829 13.1494C5.31991 14.261 6.66974 14.8169 8.25777 14.8169Z" fill="#757575"/>
</svg>
